<svg id="Capa_1" enable-background="new 0 0 512 512" height="512" viewBox="0 0 512 512" width="512" xmlns="http://www.w3.org/2000/svg"><g><g><g><path d="m268.501 247.24h-25c-2.761 0-5-2.239-5-5v-141.6c0-2.761 2.239-5 5-5h15c2.761 0 5 2.239 5 5l10 141.6c0 2.761-2.239 5-5 5z" fill="#00f2a6"/><path d="m273.502 100.641v141.6c0 2.76-2.24 5-5 5h-16c2.76 0 5-2.24 5-5v-141.6c0-2.76-2.24-5-5-5h16c2.76 0 5 2.24 5 5z" fill="#05e39c"/><path d="m256.001 67.696c13.808 0 21.603-11.463 17.354-24.601l-12.949-24.838c-1.886-3.513-6.924-3.513-8.81 0l-3.593 3.692-11.355 21.146c-3.366 10.407 2.081 21.018 11.354 24.979 2.432 1.041 5.129-.378 7.999-.378z" fill="#ffc269"/><path d="m256.002 69.701c-2.87 0-5.57-.58-8-1.62 9.27-3.97 14.72-14.58 11.35-24.99l-11.35-21.14 3.59-6.69c1.89-3.52 6.93-3.52 8.81 0l14.95 27.83c4.25 13.14-5.54 26.61-19.35 26.61z" fill="#ffa95f"/><path d="m170.892 247.24h-25c-2.761 0-5-2.239-5-5v-141.6c0-2.761 2.239-5 5-5h15c2.761 0 5 2.239 5 5l10 141.6c0 2.761-2.238 5-5 5z" fill="#00f2a6"/><path d="m175.894 100.641v141.6c0 2.76-2.24 5-5 5h-16c2.76 0 5-2.24 5-5v-141.6c0-2.76-2.24-5-5-5h16c2.76 0 5 2.24 5 5z" fill="#05e39c"/><path d="m158.392 67.696c13.808 0 21.603-11.463 17.354-24.601l-12.949-24.838c-1.886-3.513-6.924-3.513-8.81 0l-3.594 3.692-11.355 21.146c-3.366 10.407 2.081 21.018 11.354 24.979 2.433 1.041 5.13-.378 8-.378z" fill="#ffc269"/><path d="m158.394 69.701c-2.87 0-5.57-.58-8-1.62 9.27-3.97 14.72-14.58 11.35-24.99l-11.35-21.14 3.59-6.69c1.89-3.52 6.93-3.52 8.81 0l14.95 27.83c4.25 13.14-5.54 26.61-19.35 26.61z" fill="#ffa95f"/><path d="m366.108 247.24h-25c-2.761 0-5-2.239-5-5v-141.6c0-2.761 2.239-5 5-5h15c2.761 0 5 2.239 5 5l10 141.6c0 2.761-2.238 5-5 5z" fill="#00f2a6"/><path d="m371.11 100.641v141.6c0 2.76-2.24 5-5 5h-16c2.76 0 5-2.24 5-5v-141.6c0-2.76-2.24-5-5-5h16c2.76 0 5 2.24 5 5z" fill="#05e39c"/><path d="m91.815 190.892h308.369v184.889h-308.369z" fill="#ffe07d"/><path d="m360.18 190.891h60v184.89h-60z" fill="#ffd064"/><path d="m42.063 322.217h387.874v148.237h-387.874z" fill="#c68d7a"/><path d="m399.94 322.221h70v148.23h-70z" fill="#bc7c63"/><path d="m428.997 462.013h-395.994c-14.085 0-25.503 11.418-25.503 25.503 0 6.552 5.311 11.864 11.863 11.864h423.273c6.552 0 11.864-5.312 11.864-11.864 0-14.085-11.418-25.503-25.503-25.503z" fill="#eaf9fa"/><path d="m353.608 67.696c13.808 0 21.603-11.463 17.354-24.601l-12.949-24.838c-1.886-3.513-6.924-3.513-8.81 0l-3.593 3.692-11.355 21.146c-3.366 10.407 2.081 21.018 11.354 24.979 2.433 1.041 5.129-.378 7.999-.378z" fill="#ffc269"/><path d="m353.61 69.701c-2.87 0-5.57-.58-8-1.62 9.27-3.97 14.72-14.58 11.35-24.99l-11.35-21.14 3.59-6.69c1.89-3.52 6.93-3.52 8.81 0l14.95 27.83c4.25 13.14-5.54 26.61-19.35 26.61z" fill="#ffa95f"/><path d="m453.915 312.644-50-2h-355.83c-12.779 0-23.138 10.359-23.138 23.138 0 12.779 10.359 23.138 23.138 23.138h21.372c5.523 0 10 4.477 10 10v92.428c0 8.451 6.851 15.301 15.301 15.301 8.451 0 15.301-6.851 15.301-15.301v-92.428c0-5.523 4.477-10 10-10h53.456c5.523 0 10 4.477 10 10v24.428c0 8.451 6.851 15.301 15.301 15.301 8.451 0 15.301-6.851 15.301-15.301v-24.428c0-5.523 4.477-10 10-10h57.972c5.523 0 10 4.477 10 10v50.428c0 8.451 6.851 15.301 15.301 15.301 8.451 0 15.301-6.851 15.301-15.301v-50.428c0-5.523 4.477-10 10-10h67.735c5.523 0 20 4.477 20 10v19.718c0 8.451-3.149 5.301 5.301 5.301 8.451 0 5.301 3.149 5.301-5.301v-19.718c0-5.523 14.477-20 20-20h12.883c12.779 0 13.138-.359 13.138-13.138.004-12.778-10.356-21.138-23.134-21.138z" fill="#fe93d3"/><path d="m478.997 462.013h-60c14.085 0 25.503 11.418 25.503 25.503 0 6.552-5.312 11.864-11.864 11.864h60c6.552 0 11.864-5.312 11.864-11.864 0-14.085-11.418-25.503-25.503-25.503z" fill="#d4f2f6"/><path d="m463.915 310.644h-60c12.779 0 23.138 10.359 23.138 23.138 0 12.779-10.359 23.138-23.138 23.138h-3.486c5.523 0 10 4.477 10 10v19.718c0 8.451 6.851 15.301 15.301 15.301 8.451 0 15.301-6.851 15.301-15.301v-19.718c0-5.523 4.477-10 10-10h12.883c12.779 0 23.138-10.359 23.138-23.138.001-12.778-10.359-23.138-23.137-23.138z" fill="#fe73c5"/><g><path d="m414.77 173.44-59.924-2h-257.617c-12.779 0-23.138 10.359-23.138 23.138 0 12.779 10.359 23.138 23.138 23.138h18.361c5.523 0 10 4.477 10 10v34.428c0 8.451 6.851 15.301 15.301 15.301 8.451 0 15.301-6.851 15.301-15.301v-34.428c0-5.523 4.477-10 10-10h39.456c5.523 0 10 4.477 10 10v13.428c0 8.451 6.851 15.301 15.301 15.301 8.451 0 15.301-6.851 15.301-15.301v-13.428c0-5.523 4.477-10 10-10h87.972c5.523 0 20 4.477 20 10v34.428c0 8.451-3.149 5.301 5.301 5.301 8.451 0 5.301 3.149 5.301-5.301v-34.428c0-5.523 14.477-20 20-20h19.944c-13.888 0 23.138-.359 23.138-13.138.002-12.779-10.357-21.138-23.136-21.138z" fill="#fe93d3"/></g><g><path d="m414.77 171.44h-60c12.779 0 23.138 10.359 23.138 23.138 0 12.779-10.359 23.138-23.138 23.138h-10.547c5.523 0 10 4.477 10 10v34.428c0 8.451 6.85 15.301 15.301 15.301s15.301-6.851 15.301-15.301v-34.428c0-5.523 4.477-10 10-10h19.944c12.779 0 23.138-10.359 23.138-23.138.001-12.779-10.358-23.138-23.137-23.138z" fill="#fe73c5"/></g></g></g><path d="m478.997 454.512h-1.56v-93.247c10.13-5.004 17.116-15.441 17.116-27.483 0-16.894-13.744-30.638-30.638-30.638h-36.23v-80.793c10.457-4.882 17.724-15.492 17.724-27.774 0-16.894-13.744-30.638-30.638-30.638h-36.162v-63.3c0-6.893-5.607-12.5-12.5-12.5h-5v-11.96c5.972-1.646 11.233-5.25 15.013-10.445 5.3-7.284 6.749-16.376 3.977-24.947-.139-.428-.315-.843-.529-1.24l-14.949-27.838c-2.181-4.063-6.401-6.586-11.013-6.586-4.611 0-8.831 2.523-11.012 6.586l-14.949 27.838c-.213.397-.39.812-.528 1.24-2.772 8.57-1.323 17.664 3.976 24.947 3.78 5.194 9.041 8.798 15.013 10.444v11.96h-5c-6.893 0-12.5 5.607-12.5 12.5v63.3h-47.608v-63.3c0-6.893-5.607-12.5-12.5-12.5h-5v-11.96c5.972-1.646 11.233-5.25 15.013-10.445 5.3-7.284 6.749-16.376 3.977-24.947-.139-.428-.315-.843-.529-1.24l-14.949-27.839c-2.182-4.062-6.402-6.586-11.014-6.585-4.611 0-8.831 2.524-11.012 6.586l-14.949 27.838c-.213.397-.39.812-.529 1.24-2.772 8.571-1.322 17.664 3.977 24.947 3.779 5.195 9.04 8.798 15.013 10.445v11.96h-5c-6.893 0-12.5 5.607-12.5 12.5v63.3h-47.608v-63.3c0-6.893-5.607-12.5-12.5-12.5h-5v-11.96c5.972-1.646 11.234-5.25 15.013-10.444 5.299-7.284 6.749-16.377 3.976-24.947-.138-.428-.315-.843-.528-1.24l-14.949-27.838c-2.181-4.063-6.401-6.586-11.012-6.586s-8.831 2.523-11.013 6.586l-14.947 27.837c-.213.397-.39.812-.529 1.24-2.772 8.571-1.322 17.664 3.977 24.947 3.779 5.195 9.04 8.798 15.013 10.445v11.96h-5c-6.893 0-12.5 5.607-12.5 12.5v63.3h-36.162c-16.894 0-30.638 13.744-30.638 30.638 0 12.281 7.267 22.892 17.724 27.774v80.793h-36.23c-16.894 0-30.638 13.744-30.638 30.638 0 12.042 6.986 22.479 17.116 27.483v93.247h-1.56c-18.198.001-33.003 14.806-33.003 33.004 0 10.677 8.686 19.363 19.363 19.363h473.273c10.677 0 19.363-8.686 19.363-19.363.001-18.198-14.804-33.003-33.002-33.003zm-135.772-397.603c-2.325-3.196-3.043-7.148-2.006-10.929l12.39-23.074 12.391 23.074c1.037 3.781.319 7.733-2.007 10.929-2.444 3.359-6.229 5.286-10.384 5.286s-7.94-1.926-10.384-5.286zm.383 46.23h20v60.8h-20zm-97.992-46.23c-2.326-3.196-3.043-7.148-2.007-10.929l12.391-23.074 12.391 23.074c1.037 3.781.319 7.733-2.007 10.929-2.444 3.359-6.229 5.286-10.384 5.286s-7.94-1.926-10.384-5.286zm.384 46.23h20v60.8h-20zm-97.992-46.23c-2.326-3.196-3.043-7.148-2.007-10.929l12.391-23.074 12.39 23.074c1.037 3.781.319 7.733-2.006 10.929-2.444 3.359-6.229 5.286-10.384 5.286s-7.94-1.926-10.384-5.286zm.384 46.23h20v60.8h-20zm-100.307 215.005h114.313c4.142 0 7.5-3.358 7.5-7.5s-3.358-7.5-7.5-7.5h-63.083v-77.929h16.275c1.379 0 2.5 1.122 2.5 2.5v34.428c0 12.573 10.228 22.801 22.801 22.801s22.801-10.229 22.801-22.801v-34.428c0-1.378 1.122-2.5 2.5-2.5h39.456c1.378 0 2.5 1.122 2.5 2.5v13.428c0 12.573 10.229 22.801 22.801 22.801s22.801-10.229 22.801-22.801v-13.428c0-1.378 1.122-2.5 2.5-2.5h18.2c4.142 0 7.5-3.358 7.5-7.5s-3.358-7.5-7.5-7.5h-18.2c-9.649 0-17.5 7.851-17.5 17.5v13.428c0 4.302-3.499 7.801-7.801 7.801-4.301 0-7.801-3.499-7.801-7.801v-13.428c0-9.649-7.851-17.5-17.5-17.5h-39.456c-9.649 0-17.5 7.851-17.5 17.5v34.428c0 4.302-3.499 7.801-7.801 7.801s-7.801-3.5-7.801-7.801v-34.428c0-9.649-7.851-17.5-17.5-17.5h-18.361c-8.623 0-15.638-7.015-15.638-15.638s7.015-15.638 15.638-15.638h317.541c8.623 0 15.638 7.015 15.638 15.638s-7.015 15.638-15.638 15.638h-19.944c-9.649 0-17.5 7.851-17.5 17.5v34.428c0 4.302-3.499 7.801-7.801 7.801s-7.801-3.5-7.801-7.801v-34.428c0-9.649-7.851-17.5-17.5-17.5h-37.085c-4.142 0-7.5 3.358-7.5 7.5s3.358 7.5 7.5 7.5h37.085c1.379 0 2.5 1.122 2.5 2.5v34.428c0 12.573 10.229 22.801 22.801 22.801 12.573 0 22.801-10.229 22.801-22.801v-34.428c0-1.378 1.122-2.5 2.5-2.5h17.858v77.929h-217.6c-4.142 0-7.5 3.358-7.5 7.5s3.358 7.5 7.5 7.5h268.83c8.623 0 15.638 7.015 15.638 15.638s-7.015 15.638-15.638 15.638h-12.883c-9.65 0-17.5 7.851-17.5 17.5v19.718c0 4.302-3.5 7.801-7.801 7.801-4.302 0-7.801-3.499-7.801-7.801v-19.718c0-9.649-7.851-17.5-17.5-17.5h-67.735c-9.649 0-17.5 7.851-17.5 17.5v50.428c0 4.302-3.5 7.801-7.801 7.801-4.302 0-7.801-3.499-7.801-7.801v-50.428c0-9.649-7.851-17.5-17.5-17.5h-57.972c-9.649 0-17.5 7.851-17.5 17.5v24.428c0 4.302-3.5 7.801-7.801 7.801-4.302 0-7.801-3.499-7.801-7.801v-24.428c0-9.649-7.851-17.5-17.5-17.5h-53.458c-9.649 0-17.5 7.851-17.5 17.5v92.428c0 4.302-3.499 7.801-7.801 7.801s-7.801-3.499-7.801-7.801v-92.428c0-9.649-7.851-17.5-17.5-17.5h-21.373c-8.623 0-15.638-7.015-15.638-15.638s7.015-15.638 15.638-15.638zm1.478 46.275h19.895c1.378 0 2.5 1.122 2.5 2.5v87.592h-22.395zm443.074 127.459h-473.274c-2.406 0-4.363-1.957-4.363-4.363 0-9.927 8.076-18.003 18.003-18.003h41.354c3.744 7.484 11.48 12.637 20.402 12.637s16.658-5.153 20.402-12.637h259.919c4.142 0 7.5-3.358 7.5-7.5s-3.358-7.5-7.5-7.5h-257.52v-87.592c0-1.378 1.122-2.5 2.5-2.5h53.456c1.378 0 2.5 1.122 2.5 2.5v24.428c0 12.573 10.229 22.801 22.801 22.801 12.573 0 22.801-10.228 22.801-22.801v-24.428c0-1.378 1.122-2.5 2.5-2.5h57.972c1.378 0 2.5 1.122 2.5 2.5v50.428c0 12.573 10.229 22.801 22.801 22.801 12.573 0 22.801-10.228 22.801-22.801v-50.428c0-1.378 1.122-2.5 2.5-2.5h67.735c1.378 0 2.5 1.122 2.5 2.5v19.718c0 12.573 10.229 22.801 22.801 22.801 12.573 0 22.801-10.229 22.801-22.801v-19.718c0-1.378 1.121-2.5 2.5-2.5h11.406v90.092h-54.67c-4.142 0-7.5 3.358-7.5 7.5s3.358 7.5 7.5 7.5h71.23c9.927 0 18.003 8.076 18.003 18.003.002 2.405-1.956 4.363-4.361 4.363z"/></g></svg>